<svg id="Layer_1" data-name="Layer 1" xmlns="http://www.w3.org/2000/svg" xmlns:xlink="http://www.w3.org/1999/xlink" viewBox="0 0 1922.14 895.04"><defs><style>.cls-1{fill:none;}.cls-2{fill:url(#linear-gradient);}.cls-3{fill:url(#linear-gradient-2);}.cls-4{fill:#7aa64c;}.cls-5{fill:#f5c60a;}.cls-6{fill:#67b4c1;}.cls-7{fill:url(#linear-gradient-3);}.cls-8{clip-path:url(#clip-path);}.cls-9{fill:url(#linear-gradient-4);}</style><linearGradient id="linear-gradient" x1="1645.08" y1="446.75" x2="683.6" y2="450.27" gradientTransform="translate(-959.86)" gradientUnits="userSpaceOnUse"><stop offset="0" stop-color="#fff"/><stop offset="0.14" stop-color="#fdfdfd" stop-opacity="0.99"/><stop offset="0.28" stop-color="#f7f7f7" stop-opacity="0.95"/><stop offset="0.41" stop-color="#eee" stop-opacity="0.88"/><stop offset="0.54" stop-color="#e1e1e1" stop-opacity="0.78"/><stop offset="0.66" stop-color="#d0d0d0" stop-opacity="0.66"/><stop offset="0.79" stop-color="#bbb" stop-opacity="0.51"/><stop offset="0.91" stop-color="#a2a2a2" stop-opacity="0.34"/><stop offset="1" stop-color="#8f8f8f" stop-opacity="0.2"/></linearGradient><linearGradient id="linear-gradient-2" x1="1720.8" y1="-253.84" x2="1105.59" y2="-251.58" gradientTransform="translate(-629.4 558.29)" gradientUnits="userSpaceOnUse"><stop offset="0" stop-color="#fff" stop-opacity="0"/><stop offset="0.91" stop-color="#424242" stop-opacity="0.16"/><stop offset="1" stop-color="#171717" stop-opacity="0.2"/></linearGradient><linearGradient id="linear-gradient-3" x1="906.89" y1="227" x2="1076.44" y2="227" gradientTransform="translate(1189.35 1300.01) rotate(-109.15)" gradientUnits="userSpaceOnUse"><stop offset="0"/><stop offset="0.99" stop-color="#7aa64c"/></linearGradient><clipPath id="clip-path" transform="translate(0 0.04)"><rect class="cls-1" x="706" y="64" width="254" height="831"/></clipPath><linearGradient id="linear-gradient-4" x1="671.66" y1="479" x2="982.52" y2="479" gradientTransform="translate(481 1439.04) rotate(-90)" gradientUnits="userSpaceOnUse"><stop offset="0"/><stop offset="1" stop-color="#f5c60a"/></linearGradient></defs><rect class="cls-2" x="0.14" width="961" height="895" transform="translate(961.29 895.04) rotate(180)"/><rect class="cls-3" x="655.52" y="-655.56" width="609.96" height="1921" transform="translate(1265.44 -655.52) rotate(90)"/><path class="cls-4" d="M1921.14,75.91H1667.23c-11.17,0-20.23-10.62-20.23-23.73V49.37c0-13.33,9.21-24.13,20.57-24.13h253.57Z" transform="translate(0 0.04)"/><path class="cls-5" d="M1921,143.24,1779,143c-31,0-31-9.9-31-23v-3.3c0-24.7,30-23.7,30-23.7l143-.43Z" transform="translate(0 0.04)"/><path class="cls-6" d="M1922.14,203h-203c-8.93,0-16.17-8.49-16.17-19v-2.25c0-10.65,7.36-19.29,16.44-19.29h202.7Z" transform="translate(0 0.04)"/><circle class="cls-7" cx="1057" cy="227.04" r="50"/><g class="cls-8"><circle class="cls-9" cx="960" cy="479.04" r="84"/></g></svg>