<svg width="327" height="141" viewBox="0 0 327 141" fill="none" xmlns="http://www.w3.org/2000/svg">
<path d="M211.274 87.8514C219.01 87.8857 223.015 83.5277 223.01 78.1197L223.063 66.3684L223.643 -55.9148L223.701 -67.6685C223.696 -73.0765 218.905 -77.4839 211.169 -77.5183C203.432 -77.5526 199.432 -73.1971 199.433 -67.7866L199.391 -59.1191L198.779 69.3304L198.737 77.9979C198.743 83.4059 203.534 87.8134 211.274 87.8514Z" fill="url(#paint0_linear)"/>
<path d="M163.07 137.587C170.806 137.622 174.812 133.264 174.806 127.856L174.859 116.105L175.439 -6.17869L175.498 -17.9324C175.492 -23.3404 170.702 -27.7479 162.965 -27.7822C155.225 -27.8202 151.228 -23.461 151.229 -18.0505L151.187 -9.38304L150.584 119.068L150.542 127.735C150.543 133.146 155.339 137.551 163.07 137.587Z" fill="url(#paint1_linear)"/>
<path d="M115.985 72.6221C123.721 72.6564 127.726 68.2984 127.72 62.8904L127.774 51.1392L128.354 -71.144L128.412 -82.8977C128.406 -88.3057 123.616 -92.7132 115.88 -92.7475C108.14 -92.7855 104.143 -88.4263 104.144 -83.0159L104.102 -74.3484L103.499 54.1023L103.457 62.7698C103.463 68.1778 108.253 72.5853 115.985 72.6221Z" fill="url(#paint2_linear)"/>
<path d="M160.879 90.1213C162.05 91.2929 163.95 91.2929 165.121 90.1213L184.213 71.0294C185.385 69.8579 185.385 67.9584 184.213 66.7868C183.042 65.6152 181.142 65.6152 179.971 66.7868L163 83.7574L146.029 66.7868C144.858 65.6152 142.958 65.6152 141.787 66.7868C140.615 67.9584 140.615 69.8579 141.787 71.0294L160.879 90.1213ZM160 30L160 88L166 88L166 30L160 30Z" fill="url(#paint3_linear)"/>
<defs>
<linearGradient id="paint0_linear" x1="270.542" y1="-22.7159" x2="181.29" y2="63.4799" gradientUnits="userSpaceOnUse">
<stop stop-color="#508899"/>
<stop offset="1" stop-color="#6EC1CD"/>
</linearGradient>
<linearGradient id="paint1_linear" x1="222.337" y1="27.0194" x2="133.087" y2="113.213" gradientUnits="userSpaceOnUse">
<stop stop-color="#D7AD0E"/>
<stop offset="1" stop-color="#F5C60A"/>
</linearGradient>
<linearGradient id="paint2_linear" x1="56.6156" y1="-16.5361" x2="41.7185" y2="-118.06" gradientUnits="userSpaceOnUse">
<stop stop-color="#7AA64C"/>
<stop offset="1" stop-color="#526D3E"/>
</linearGradient>
<linearGradient id="paint3_linear" x1="163" y1="59" x2="163" y2="8.5" gradientUnits="userSpaceOnUse">
<stop stop-color="white"/>
<stop offset="1" stop-color="white" stop-opacity="0.63"/>
</linearGradient>
</defs>
</svg>
