<svg id="Layer_1" data-name="Layer 1" xmlns="http://www.w3.org/2000/svg" viewBox="0 0 130.51 151"><defs><style>.cls-1{fill:#7aa64c;}.cls-2{fill:#62abb9;}.cls-3{fill:#dfb40d;}.cls-4{fill:#fafafa;}</style></defs><path class="cls-1" d="M198,0V72s-10.91,19-26.51,0l.4-72Z" transform="translate(-171.49)"/><path class="cls-2" d="M302,0V87.19s-10.91,23-26.51,0L275.89,0Z" transform="translate(-171.49)"/><path class="cls-3" d="M251.14,0V141.8S245,151,238,151s-15-9-15-9V0Z" transform="translate(-171.49)"/><path class="cls-4" d="M204.87,75.83l29.07,26.29a3.42,3.42,0,0,0,4.61,0l30.33-27.58a3.43,3.43,0,0,0,.12-5h0a3.44,3.44,0,0,0-4.69-.16L246.75,84.79a3.43,3.43,0,0,1-5.69-2.58l0-60.08a3.44,3.44,0,0,0-3.43-3.43h-.16a3.44,3.44,0,0,0-3.43,3.38l-.93,60.29a3.43,3.43,0,0,1-5.69,2.53L210.15,69.75a3.42,3.42,0,0,0-5,.52l-.72,1A3.44,3.44,0,0,0,204.87,75.83Z" transform="translate(-171.49)"/></svg>