<svg id="Layer_1" data-name="Layer 1" xmlns="http://www.w3.org/2000/svg" viewBox="0 0 183 30.88"><defs><style>.cls-1{fill:#90c553;}</style></defs><path class="cls-1" d="M190.56,19l.09-.14a.75.75,0,0,0,.06-.13,2.6,2.6,0,0,0,.1-.25c0-.06.05-.11.07-.17s0-.08,0-.13a2,2,0,0,0,0-.26c0-.06,0-.12,0-.17a.85.85,0,0,1,0-.16s0-.09,0-.13,0-.09,0-.13a.85.85,0,0,1,0-.16c0-.05,0-.11,0-.17a2,2,0,0,0,0-.26c0-.05,0-.09,0-.13s0-.11-.07-.17a2.6,2.6,0,0,0-.1-.25.75.75,0,0,0-.06-.13l-.09-.14a1.5,1.5,0,0,0-.15-.23l-.09-.13v0l-.1-.09a1.89,1.89,0,0,0-.2-.2l-.09-.1L175,2.75a3,3,0,0,0-4.22.39h0a3,3,0,0,0,.38,4.22l8.58,7.14H11a3,3,0,0,0,0,6H179.7l-8.58,7.14A3,3,0,0,0,175,32.25l15-12.44.09-.1a1.89,1.89,0,0,0,.2-.2l.1-.09a0,0,0,0,1,0,0l.09-.13A1.5,1.5,0,0,0,190.56,19Z" transform="translate(-8 -2.06)"/></svg>