<svg id="Layer_1" data-name="Layer 1" xmlns="http://www.w3.org/2000/svg" viewBox="0 0 182.89 30.9"><defs><style>.cls-1{fill:#faca16;}</style></defs><path class="cls-1" d="M.41,17.23l.09.13h0l.1.09a1.89,1.89,0,0,0,.2.2l.09.1,15,12.44a3,3,0,0,0,3.88-4.61l-8.58-7.14h168.7a3,3,0,0,0,0-6H11.15L19.73,5.3a3,3,0,0,0,.38-4.22h0A3,3,0,0,0,15.89.69L1,13.11l-.09.1a1.89,1.89,0,0,0-.2.2l-.1.09h0l-.09.13a1.14,1.14,0,0,0-.15.23L.24,14a.31.31,0,0,0-.06.13,1.86,1.86,0,0,0-.1.25.2.2,0,0,0-.07.17v.13a1.13,1.13,0,0,0,0,.26v.92a1.13,1.13,0,0,0,0,.26c0,.05,0,.07,0,.13s.07.11.07.17a1.86,1.86,0,0,0,.1.25.31.31,0,0,0,.06.13l.09.14A1.38,1.38,0,0,0,.41,17.23Z" transform="translate(0 0)"/></svg>