<svg id="Layer_1" data-name="Layer 1" xmlns="http://www.w3.org/2000/svg" viewBox="0 0 40.28 183"><defs><style>.cls-1,.cls-2{fill:#ed4c4c;}.cls-2{font-size:19px;font-family:Assistant-Regular, Assistant;}</style></defs><path class="cls-1" d="M21.73,193.3l.14.08a.75.75,0,0,0,.13.06l.25.1.17.07.13,0,.26.05a1,1,0,0,0,.17,0h.29l.13,0h.16l.17,0,.26-.05.13,0a.76.76,0,0,0,.16-.06l.26-.11.13-.05.13-.09.24-.15.12-.09,0,0,.09-.09a2,2,0,0,0,.2-.21.76.76,0,0,0,.09-.09l12.42-15a3,3,0,0,0-.4-4.22h0a3,3,0,0,0-4.22.39l-7.12,8.59-.33-168.7a3,3,0,0,0-6,0l.33,168.71-7.16-8.57a3,3,0,1,0-4.6,3.85L21,192.65l.09.09.21.21.09.09h0a1,1,0,0,0,.13.09A1.88,1.88,0,0,0,21.73,193.3Z" transform="translate(-7.79 -10.73)"/><text class="cls-2" transform="translate(35.36 146.52) rotate(-90.24)">םישמתשמ תורוקיב</text></svg>