<svg id="Layer_1" data-name="Layer 1" xmlns="http://www.w3.org/2000/svg" xmlns:xlink="http://www.w3.org/1999/xlink" viewBox="0 0 1920 368"><defs><style>.cls-1{fill:url(#linear-gradient);}.cls-2{fill:#62abb9;}.cls-3{fill:#dfb40d;}.cls-4{fill:#7aa64c;}</style><linearGradient id="linear-gradient" x1="959.5" y1="168" x2="959.5" gradientUnits="userSpaceOnUse"><stop offset="0" stop-color="#fff"/><stop offset="0.13" stop-color="#fdfdfd" stop-opacity="0.99"/><stop offset="0.26" stop-color="#f7f7f7" stop-opacity="0.94"/><stop offset="0.4" stop-color="#eee" stop-opacity="0.87"/><stop offset="0.53" stop-color="#e1e1e1" stop-opacity="0.76"/><stop offset="0.67" stop-color="#d0d0d0" stop-opacity="0.63"/><stop offset="0.81" stop-color="#bbb" stop-opacity="0.47"/><stop offset="0.95" stop-color="#a3a3a3" stop-opacity="0.28"/><stop offset="1" stop-color="#999" stop-opacity="0.2"/></linearGradient></defs><rect class="cls-1" x="3" width="1913" height="168"/><path class="cls-2" d="M1972.67,46.57,1873,136a15.3,15.3,0,0,1-4.53,2.77C1863,141,1844,141,1849.89,118.9a11.6,11.6,0,0,1,3.83-5.44l99.44-88.69a14.64,14.64,0,0,1,20.63,1.15h0A14.63,14.63,0,0,1,1972.67,46.57Z"/><path class="cls-3" d="M1935.45,17.22,1737.67,194.65s-14.11,12.52-22.65.57c-8-11.22,1.35-23.75,1.35-23.75L1914.43-6.21Z"/><path class="cls-4" d="M1874.59.23l-99.68,89.43a15.64,15.64,0,0,1-4.54,2.77c-5.45,2.22-24.45,2.22-18.56-19.88a11.79,11.79,0,0,1,3.83-5.44l99.45-88.68a14.62,14.62,0,0,1,20.62,1.14h0A14.64,14.64,0,0,1,1874.59.23Z"/></svg>