<?xml version="1.0" encoding="utf-8"?>
<!-- Generator: Adobe Illustrator 24.2.3, SVG Export Plug-In . SVG Version: 6.00 Build 0)  -->
<svg version="1.1" id="Layer_1" xmlns="http://www.w3.org/2000/svg" xmlns:xlink="http://www.w3.org/1999/xlink" x="0px" y="0px"
	 viewBox="0 0 1920 200" style="enable-background:new 0 0 1920 200;" xml:space="preserve">
<style type="text/css">
	.st0{fill:#FEFEFE;}
	.st1{fill:#7AA54C;}
	.st2{fill:#F6F6F6;}
	.st3{fill:#E1B50D;}
	.st4{fill:#E2B60C;}
	.st5{fill:#FCFCFC;}
	.st6{fill:#64AEBB;}
	.st7{fill:#F9F9F9;}
	.st8{fill:#F8F8F8;}
	.st9{fill:#63ABB9;}
	.st10{fill:#62A9B7;}
	.st11{fill:#DEB40E;}
	.st12{fill:#E8BB0C;}
	.st13{fill:#E6B90C;}
	.st14{fill:#F0C20B;}
	.st15{fill:#F3C40A;}
	.st16{fill:#FDFDFD;}
	.st17{fill:#68B5C2;}
	.st18{fill:#EABD0B;}
	.st19{fill:#E4B80C;}
	.st20{fill:#ECBE0B;}
	.st21{fill:#6DBECA;}
	.st22{fill:#EEC00B;}
	.st23{fill:#EFC10B;}
	.st24{fill:#6CBCC8;}
	.st25{fill:#67B3C0;}
	.st26{fill:#69B7C3;}
	.st27{fill:#6BBBC7;}
	.st28{fill:#6AB8C5;}
	.st29{fill:#69B6C3;}
	.st30{fill:#ECBF0B;}
	.st31{fill:#F4C50A;}
	.st32{fill:#FCF8E6;}
	.st33{fill:#FCF6E2;}
	.st34{fill:#FEFCF8;}
	.st35{fill:#65AFBD;}
	.st36{fill:#F7F7F7;}
	.st37{fill:#E3B70C;}
	.st38{fill:#FAF2D2;}
	.st39{fill:#FAF1CD;}
	.st40{fill:#FBF4D9;}
	.st41{fill:#FBF5DC;}
	.st42{fill:#FBFBFB;}
	.st43{fill:#66B1BE;}
	.st44{fill:#FDF9ED;}
	.st45{fill:#FDFBF3;}
	.st46{fill:#FAFAFA;}
</style>
<g>
	<path class="st0" d="M1004.52,60.83c0.66,0,1.33-0.04,1.96,0.23c0.78,0.52,0.57,1.35,0.57,2.07c0.02,5.68-0.13,11.37,0.06,17.05
		c0.13,4.02,0.14,8.05,0.31,12.06c0.3,7.09,5.68,13.02,12.8,14.39c2.5,0.48,4.99,0.45,7.48,0c1.87-0.4,3.61-1.1,5.18-2.19
		c0.78-0.49,1.47-1.08,2.09-1.77c0.95-0.89,1.65-1.98,2.24-3.13c0.35-0.97,0.94-1.85,1.02-2.91c0.35-1.51,0.69-3.02,0.77-4.57
		c-0.05-2.27-0.06-4.55-0.01-6.82c-0.04-1.07-0.05-2.15,0-3.22c-0.06-3.27-0.07-6.54,0-9.81c0-0.9-0.06-1.8-0.01-2.7
		c0.05-2.18-0.1-4.35-0.01-6.53c0.07-2.18,0-4.35,0.03-6.53c0.01-0.61-0.08-1.24,0.34-1.77c0.53-0.4,1.16-0.37,1.77-0.38
		c5.63-0.01,11.26-0.01,16.89,0c0.66,0,1.34-0.03,1.88,0.46"/>
	<path class="st0" d="M939.75,61.12c0.8,0,1.62-0.12,2.35,0.36c0.53,0.65,0.42,1.43,0.43,2.18c0.06,4.96-0.07,9.92-0.05,14.89
		c0,0.71-0.02,1.42,0.21,2.1c0.26,3.79,0.09,7.58,0.11,11.38c0.02,4.67,0.03,9.33,0.01,14c-0.12,6.72,0,13.44-0.03,20.16
		c0,0.87,0.39,1.53,0.99,2.12c3.84,3.78,7.51,7.74,11.84,11.43c0-7.75-0.01-15.32,0.03-22.88c0.02-0.34,0.07-0.66,0.28-0.94
		c1.24-0.67,2.56-0.1,3.84-0.22c0.74-0.07,1.59-0.29,2.32,0.22c0.59,0.96,0.09,2.08,0.46,3.07c0.28,2.84,0.1,5.68,0.12,8.52
		c0.02,4.02-0.04,8.04,0.4,12.33c3.13-3.27,6.39-6.18,9.26-9.49c2.12-1.66,2.48-3.88,2.39-6.44c-0.15-4.31-0.07-8.62-0.03-12.94
		c-0.11-7.84-0.01-15.67,0.01-23.51c0-0.75,0.04-1.51-0.21-2.24c-0.25-4.44-0.1-8.89-0.09-13.33c-0.05-2.75-0.06-5.5,0.01-8.25
		c-0.01-0.84-0.18-1.7,0.42-2.44c0.64-0.41,1.36-0.34,2.07-0.34"/>
	<path class="st0" d="M876.54,54.29c0.47,0,0.94,0.03,1.37,0.26c0.66,0.51,0.47,1.25,0.51,1.92c0.04,0.69-0.06,1.39,0.14,2.06
		c0.29,2.36,0.07,4.73,0.14,7.1c0.11,3.44,0.98,6.67,2.98,9.5c3.8,5.36,9.17,7.28,15.51,6.67c5.91-0.57,10.07-3.67,12.23-9.23
		c1.13-2.91,1.31-6,1.24-9.11c-0.02-0.76-0.24-1.66,0.66-2.17c0.69-0.24,1.41-0.19,2.12-0.19"/>
	<path class="st1" d="M911.07,61.57c-0.13,2.92,0.1,5.86-0.55,8.76c-1.94,8.62-8.86,12.87-17.22,11.86
		c-9.34-1.13-14.82-7.53-14.96-16.95c-0.03-2.18-0.04-4.36-0.07-6.53c-0.12-3.48-0.47-6.96-0.35-10.45
		c0.23-6.66-0.41-13.32-0.34-19.98c0.01-0.57-0.01-1.13,0.04-1.7c-0.06-4.65-0.06-9.31,0-13.96c-0.08-3.74-0.03-7.48-0.03-11.22
		c0-0.57,0.03-1.14,0.45-1.6c10.91,0,21.82,0,32.73,0c0.42,0.46,0.45,1.03,0.45,1.6c0,3.74,0.06,7.47-0.03,11.21
		c0.12,6.72-0.03,13.45-0.02,20.17c0,5.21,0,10.42,0,15.63c0,0.66-0.02,1.33,0.19,1.97c0.22,1.46,0.13,2.92,0.11,4.38
		c0.07,1.74,0.03,3.47,0.02,5.21C911.49,60.55,911.47,61.11,911.07,61.57z"/>
	<path class="st2" d="M976.54,12.8c-0.7,0-1.43,0.07-2.06-0.36c-0.46-0.55-0.42-1.23-0.42-1.88c-0.02-2.96-0.01-5.91,0-8.87
		c0-0.65-0.03-1.33,0.46-1.87"/>
	<path class="st2" d="M1006.39-0.19c0.18,0.21,0.31,0.44,0.36,0.72c0.17,2.42,0.07,4.85,0.07,7.27c-0.23,1.54,0.37,3.15-0.41,4.64
		c-0.64,0.42-1.36,0.35-2.06,0.35"/>
	<path class="st2" d="M912.68,13.08c-0.65,0-1.34,0.06-1.88-0.46c-0.11-4.27-0.16-8.54-0.03-12.81"/>
	<path class="st2" d="M941.79-0.19c0.76,1.18,0.34,2.5,0.43,3.76c-0.06,2.46,0,4.91-0.03,7.37c-0.01,0.61,0.08,1.24-0.34,1.77
		c-0.53,0.39-1.16,0.37-1.77,0.37"/>
	<path class="st3" d="M947.76-0.19c4.93,0,9.87,0,14.8,0c1.28,1.92,2.53,3.84,4.08,5.58c1.23,1.38,2.15,3.05,3.37,4.51
		c1.7,2.03,3.49,4.03,4.85,6.35c0.2,3.63,0.01,7.25,0.04,10.87c0.02,2.4,0.09,4.8-0.05,7.2c-0.18,0.67-0.61,0.77-1.2,0.52
		c-0.41-0.17-0.74-0.46-0.95-0.83c-1.22-2.14-2.99-3.87-4.39-5.88c-0.93-1.34-2.09-2.55-3.12-3.84c-2.39-2.99-4.49-6.21-6.94-9.13
		c-3.17-3.77-5.92-7.86-9.07-11.64c-0.51-0.62-0.95-1.3-1.35-2C947.54,0.98,947.26,0.41,947.76-0.19z"/>
	<path class="st4" d="M947.76-0.19c-0.11,1.54,0.99,2.52,1.78,3.59c2.39,3.21,4.77,6.42,7.35,9.47c2.28,2.7,4.26,5.61,6.41,8.41
		c1.34,1.75,2.69,3.52,4.13,5.18c1.25,1.43,2.01,3.22,3.59,4.44c0.86,0.66,1.19,1.97,1.94,2.9c0.45,0.56,0.9,0.94,1.6,1.02
		c0.67,1.12,0.24,2.36,0.35,3.54c0.05,0.51,0.01,1.02,0.01,1.53c-0.06,2.06,0.1,4.12-0.09,6.17c-0.57,1.13-1.23,0.49-1.62-0.05
		c-1.38-1.92-3.07-3.6-4.43-5.53c-1.75-2.47-3.53-4.94-5.42-7.29c-1.86-2.31-3.75-4.63-5.39-7.06c-1.66-2.47-4.16-4.31-5.3-7.13
		c-0.05-0.13-0.14-0.26-0.25-0.35c-2.54-2.01-3.8-5.04-5.93-7.37c-1.62-1.78-2.93-3.81-4.54-5.59c-0.08-0.72,0.09-1.45-0.1-2.16
		c-0.02-1.24-0.04-2.48-0.06-3.72C943.78-0.19,945.77-0.19,947.76-0.19z"/>
	<path class="st5" d="M1059.89,54.74c-6.82,0-13.65,0-20.47,0c-0.52-0.49-0.41-1.13-0.41-1.73c-0.02-3.17-0.01-6.34-0.01-9.51
		c0.07-0.96-0.15-1.94,0.22-2.87c0.44-0.57,1.09-0.53,1.69-0.49c5.75,0.41,11.49-0.11,17.24-0.02c0.61,0.01,1.24-0.06,1.75,0.4
		C1059.89,45.26,1059.89,50,1059.89,54.74z"/>
	<path class="st6" d="M1006.42,0.39c-0.01-0.19-0.02-0.38-0.03-0.58c2.47,0,4.93,0,7.4,0c1.09,0.99,2.06,2.09,2.87,3.32
		c1.55,2.36,3.28,4.6,5.15,6.71c0.98,1.11,1.57,2.47,2.57,3.56c2.96,3.23,5.2,7.03,8,10.36c1.16,1.37,2.14,2.95,3.61,4.06
		c0.27,0.2,0.46,0.48,0.6,0.78c0.54,1.17,1.21,2.25,2.2,3.11c0.3,0.26,0.49,0.58,0.46,1c0,2.82,0,5.64,0,8.46
		c-0.36,1.32-1.02,0.43-1.38,0.09c-1.16-1.11-1.98-2.52-3.04-3.74c-1.71-1.96-3.3-4.03-4.8-6.14c-2.19-3.09-4.78-5.86-6.88-9.02
		c-1.78-2.68-3.95-5.08-5.86-7.66c-1.88-2.55-4.08-4.85-5.68-7.61c-0.69-1.19-1.69-2.16-2.62-3.16
		C1007.99,2.85,1007.2,1.63,1006.42,0.39z"/>
	<path class="st7" d="M876.16,26.11c0.66,0,1.33-0.02,1.88,0.46c0.08,6.8,0.17,13.6,0.23,20.39c0.03,3.92,0,7.84-0.01,11.76
		c-0.51-1.3-0.1-2.65-0.24-3.97c-0.51-0.6-0.42-1.33-0.43-2.03c-0.01-3.35,0.01-6.71-0.01-10.06c-0.01-1.54-0.17-1.7-1.72-1.7"/>
	<path class="st5" d="M873.4,40.64c1.09,0.08,2.26-0.05,3.38-0.15c1.03-0.08,1.28,0.35,1.27,1.31c-0.04,4.31-0.02,8.62-0.02,12.94"
		/>
	<path class="st8" d="M876.12,12.17c0.65,0,1.34-0.07,1.87,0.45c0.02,4.65,0.04,9.3,0.06,13.94"/>
	<path class="st9" d="M1039.12,32.26c-0.88-0.35-1.4-1.06-1.92-1.8c-0.73-1.04-1.66-2.09-2.24-3.06c-1.05-1.78-2.84-2.79-3.81-4.6
		c-0.82-1.54-2.12-2.86-3.16-4.31c-0.65-0.9-1.33-1.73-1.87-2.74c-0.54-1-1.78-1.69-2.5-2.73c-0.89-1.29-1.84-2.55-2.77-3.82
		c-0.17-0.23-0.31-0.47-0.51-0.67c-2.53-2.53-4.14-5.78-6.52-8.43c-0.05-0.06-0.03-0.18-0.05-0.28c2.94,0,5.88,0,8.82,0
		c2.09,1.17,2.88,3.39,4.11,5.22c2.29,3.42,5.18,6.35,7.49,9.74c1.46,2.15,3.2,4.08,4.74,6.17c0.23,0.31,0.44,0.61,0.51,1
		C1039.69,25.39,1039.16,28.82,1039.12,32.26z"/>
	<path class="st2" d="M878.04-0.19c-0.02,4.27-0.03,8.54-0.05,12.81"/>
	<path class="st10" d="M1039.08,21.44c-1.41-1.7-2.98-3.28-4.17-5.12c-1.41-2.18-3.16-4.05-4.69-6.11
		c-1.99-2.69-4.42-5.07-5.64-8.28c-0.14-0.36-0.41-0.55-0.72-0.61c-0.84-0.18-1.13-0.76-1.25-1.51c5.5,0,11,0,16.51,0
		c0.02,4.17,0.03,8.35,0.05,12.52c0.29,0.34,0.38,0.75,0.39,1.18c0.03,2.3,0.08,4.61-0.05,6.91
		C1039.48,20.82,1039.42,21.19,1039.08,21.44z"/>
	<path class="st11" d="M974.48,15.75c-1.25-1.36-2.79-2.51-3.5-4.28c-0.46-1.14-1.59-1.53-2.24-2.46c-1.6-2.3-3.35-4.5-4.95-6.79
		c-0.51-0.73-1.51-1.26-1.23-2.41c3.98,0,7.97,0,11.95,0c0.02,4.17,0.03,8.35,0.05,12.52C975.11,13.49,975.21,14.63,974.48,15.75z"
		/>
	<path class="st12" d="M942.34,80.69c-0.35-2.58-0.11-5.18-0.17-7.77c-0.1-3.78-0.08-7.56-0.11-11.34c-0.55-0.68-0.41-1.5-0.42-2.28
		c-0.01-1.44-0.05-2.88,0.02-4.32c0.02-0.4,0.01-0.8,0.17-1.18c1.42-1.54,1.88-1.75,3.73-0.11c1.22,1.08,2,2.07,2.4,3.55
		c0.15,0.56,0.63,0.96,1.17,1.18c1.86,0.77,2.77,2.16,2.85,4.15c0.02,0.53,0.14,0.95,0.87,0.62c0.69-0.31,1.18,0.04,1.19,0.73
		c0.05,1.92,1.35,2.67,2.86,3.26c1.14,0.44,1.92,1.06,1.44,2.45c-0.2,0.56,0.11,0.86,0.61,1.09c1.48,0.71,2.88,1.51,2.88,3.47
		c0,0.3,0.23,0.49,0.48,0.66c1.08,0.74,2.23,1.44,1.94,3.05c-0.03,0.17,0.06,0.3,0.21,0.27c0.97-0.26,1.18,0.7,1.76,1.03
		c0.5,0.29,0.79,0.66,1.18,1.02c1.29,1.21,1.41,2.53,0.79,4.13c0.5-0.42,0.58-1.5,1.43-0.78c0.56,0.47,1.38,1.02,0.7,1.99
		c-0.13,0.18-0.44,0.5-0.23,0.56c1.41,0.35,1.12,2.29,2.53,2.64c0.58,0.14,1.01,0.59,0.78,1.29c-0.31,0.9,0.26,1.41,1.03,2.24
		c0.05-1.9-0.01-3.51,0.04-5.13c0.02-0.69-0.21-1.44,0.37-2.03c0.34,2.16,0.13,4.33,0.15,6.5c0.06,6.48,0.04,12.96,0.06,19.44
		c-0.68,0.18-1.03-0.29-1.41-0.71c-2.32-2.61-4.27-5.5-6.44-8.23c-1.16-1.46-2.68-2.67-3.41-4.47c-0.13-0.32-0.43-0.62-0.93-0.75
		c-0.36,0.59-0.16,1.25-0.18,1.87c-0.03,1.37,0.02,2.74-0.03,4.1c-0.02,0.51,0.18,1.16-0.56,1.41c-0.59-0.49-0.44-1.17-0.48-1.81
		c-0.04-0.93-0.03-1.86-0.01-2.79c-0.03-0.95-0.03-1.89,0-2.84c-0.03-1.04-0.03-2.08,0-3.13c-0.04-1.2-0.04-2.39,0.01-3.59
		c-0.08-2.45,0.44-2.57-2.54-2.54c-3.21,0.03-2.88-0.31-2.9,3.02c-0.03,0.97,0.13,1.95-0.2,2.89c-0.71,0.08-0.76,0.07-0.84-0.65
		c-0.11-1.04-0.08-2.08-0.03-3.12c0.05-1.06-0.32-1.63-1.4-1.93c-1.57-0.43-1.7-0.76-1.54-2.48c0.12-1.29-1.3-3-2.57-2.99
		c-0.84,0.01-1-0.51-0.91-1.09c0.17-1.07-0.26-1.51-1.28-1.53c-0.94-0.02-1.26-0.56-1.11-1.41c0.2-1.12-0.19-1.77-1.29-2.15
		c-1.05-0.36-1.47-1.42-2.23-2.61c-0.02,1.97,0.01,3.61-0.02,5.25C942.71,79.45,942.89,80.15,942.34,80.69z"/>
	<path class="st13" d="M974.82,85.15c-0.01,2.18,0,4.36-0.03,6.55c0,0.39,0.21,0.95-0.35,1.1c-0.48,0.13-0.55-0.41-0.75-0.71
		c-0.48-0.72-1.33-1.27-0.54-2.39c0.29-0.41-0.56-0.68-0.97-0.74c-0.75-0.11-1.15-0.42-1.07-1.19c0.1-0.91-0.72-0.83-1.17-1.17
		c-0.36-0.27-1.14-0.51-0.16-1.03c0.29-0.15,0.9-0.29,0.45-0.77c-0.37-0.39-0.46-1.22-1.12-1.13c-0.49,0.07-0.19,0.73-0.28,1.12
		c-0.04,0.17-0.08,0.34-0.28,0.53c-0.13-0.86-2-1.44-0.3-2.58c0.1-0.07,0.2-0.23,0.21-0.35c0.11-1.13-1.58-0.97-1.49-1.68
		c0.21-1.66-0.6-1.2-1.48-0.77c0.03-0.91,0.46-2.18-1.14-1.22c-0.3,0.18-0.54,0.17-0.74-0.1c-0.21-0.29-0.03-0.54,0.18-0.74
		c0.55-0.53,0.46-0.78-0.19-1.28c-0.66-0.52-0.93-1.52-2.01-1.58c-0.06,0-0.15-0.33-0.14-0.51c0.11-2.08-1.14-2.94-2.93-3.45
		c-0.72-0.2-1-0.89-0.54-1.58c0.72-1.07-0.13-1.71-0.79-1.81c-1.12-0.16-1.8-1-2.76-1.38c-0.74-0.29-0.52-1.4-0.67-2.15
		c-0.1-0.49-0.15-1.16-0.79-0.69c-1.47,1.08-1.44-0.43-1.41-0.93c0.08-1.83-0.81-2.89-2.33-3.64c-1.41-0.69-2.25-1.75-2.05-3.43
		c0.05-0.38-0.1-0.72-0.52-0.68c-1,0.11-1.37-0.5-1.82-1.24c-0.45-0.73-1.13-1.33-1.94-0.24c-0.14,0.19-0.51,0.21-0.77,0.31
		c-0.77-0.82-0.42-1.84-0.49-2.78c-0.06-0.78,0-1.57,0.03-2.36c0.05-5.71-0.08-11.41,0.06-17.11c0.69-0.96,1.22-1.05,1.79-0.18
		c3.05,4.62,6.69,8.8,9.91,13.29c1.98,2.76,4.3,5.28,6.36,7.99c2.88,3.8,5.89,7.49,8.79,11.27c2.07,2.69,3.91,5.56,6.18,8.09
		C974.78,76.26,974.8,80.71,974.82,85.15z"/>
	<path class="st14" d="M975.31,179.12c-0.43,4.51-1.91,8.5-5.63,11.39c-1.45-0.37-2.33-1.37-2.93-2.67
		c-0.79-1.72-2.18-3.07-2.96-4.82c-0.33-0.74-1.69-0.92-1.38-2.18c0.03-0.14-0.16-0.19-0.31-0.18c-1,0.09-1.18-0.36-0.8-1.2
		c0.29-0.64-0.12-0.95-0.63-0.95c-1.17,0.01-1.65-0.79-2.09-1.64c-0.41-0.8-0.96-1.52-1.4-2.3c-0.45-0.79-0.99-1.43-1.79-1.94
		c-1.16-0.74-1.97-1.77-1.69-3.31c0.11-0.59,0.07-0.81-0.78-0.79c-1.16,0.04-1.95-0.95-2.24-2.02c-0.27-0.97-0.81-1.58-1.6-2.04
		c-0.86-0.51-1.32-1.15-1.11-2.21c0.12-0.6-1.05-2.09-1.76-2.21c-1-0.17-1.57-0.55-1.39-1.68c0.11-0.67-0.39-1.02-0.9-1.31
		c-0.41-0.23-0.9-0.31-1.22-0.7c0-6.45,0-12.9,0-19.48c0.55,0.39,1.02,0.73,1.29,1.29c0.4,1.33,1.12,2.6,2.07,3.47
		c1.5,1.38,2.31,3.22,3.65,4.66c2.92,3.14,4.92,6.97,7.76,10.18c2.31,2.62,4.49,5.38,6.46,8.25c2.43,3.55,5.23,6.79,7.8,10.22
		C972.81,176.39,973.91,177.9,975.31,179.12z"/>
	<path class="st15" d="M942.69,156.35c0.87,0.07,1.68,0.3,2.24,1.03c0.25,0.33,0.53,0.63,0.27,1.14c-0.4,0.79,0.04,1.18,0.8,1.11
		c0.79-0.07,1.3,0.16,1.47,0.94c0.08,0.38,0.26,0.55,0.61,0.68c0.51,0.19,0.97,0.3,0.3,1.03c-0.52,0.57-0.18,1.33,0.55,1.73
		c1.04,0.57,1.97,1.12,2.05,2.56c0.05,0.95,1.46,1.57,2.5,1.32c0.59-0.14,0.84,0.14,0.69,0.68c-0.58,2.09,0.39,3.16,2.15,4.22
		c1.05,0.63,1.58,2.17,2.24,3.36c0.56,1,0.95,2.04,2.4,2.07c0.78,0.02,1.44,0.46,0.68,1.41c-0.16,0.2-0.5,0.38-0.23,0.7
		c0.25,0.29,0.51,0.12,0.74-0.07c0.23-0.18,0.5-0.37,0.76-0.14c0.3,0.25,0.03,0.53-0.09,0.76c-0.24,0.43-0.22,1.1,0.12,1.12
		c1.41,0.07,1.39,1.34,1.82,2.11c0.73,1.32,1.98,2.3,2.4,3.78c0.38,1.37,1.75,1.7,2.53,2.64c-3.11,2.69-6.85,3.33-10.78,3.23
		c-1.16-0.03-2.35,0.03-3.46-0.46c-1.71-2.11-3.74-3.99-4.93-6.49c-0.23-0.49-0.58-0.86-0.93-1.24c-0.92-1-1.87-1.95-2.44-3.27
		c-0.48-1.12-1.7-1.73-2.49-2.68c-1.25-1.49-1.71-3.25-1.82-5.08c-0.14-2.36-0.04-4.73-0.04-7.1c-0.05-3.21,0.11-6.42-0.09-9.63
		C942.7,157.31,942.69,156.83,942.69,156.35z"/>
	<path class="st16" d="M1004.37,47.45c0.66,0,1.33-0.05,1.94,0.29c0.59,0.5,0.44,1.2,0.47,1.84c0.07,1.31-0.15,2.64,0.18,3.94
		c0.14,0.7,0.15,1.4,0.13,2.11c-0.02,1.39,0.04,2.79,0.01,4.18c-0.08,0.52,0.03,1.09-0.46,1.48"/>
	<path class="st16" d="M974.85,61.29c-0.56-0.5-0.47-1.17-0.46-1.82c0.04-3.24,0-6.49,0.02-9.73c0-0.65-0.11-1.33,0.34-1.9
		c0.63-0.45,1.35-0.38,2.06-0.38"/>
	<path class="st17" d="M1006.35,12.34c0.03-1.51,0.06-3.02,0.08-4.54c0.86,0.28,0.57,1.04,0.65,1.63c0.06,0.5,0.03,1.01,0,1.52
		c0.03,1.33,0.05,2.65,0,3.98c0.03,1.87,0.07,3.74,0,5.61c0.02,2.13,0.05,4.27,0,6.4c-0.01,0.42-0.02,0.85-0.07,1.27
		c-0.21,1.65,0.33,2.96,1.41,4.26c4.06,4.87,7.76,10.04,11.66,15.05c3.72,4.78,7.35,9.64,11.1,14.4c2.05,2.61,4.03,5.27,6.06,7.88
		c0.64,0.83,1.43,1.51,2.11,2.3c0.01,3.32,0.02,6.64,0.04,9.96c-0.78,0.4-1.14-0.22-1.49-0.68c-3.78-4.92-7.43-9.93-11.31-14.76
		c-3.88-4.84-7.53-9.86-11.41-14.69c-2.28-2.84-4.37-5.83-6.58-8.72c-0.74-0.97-1.72-1.76-2.27-2.89c0.1-4.69-0.6-9.36-0.37-14.05
		c-0.05-2.18-0.05-4.36,0-6.55c-0.07-1.93-0.02-3.86-0.02-5.79C1005.94,13.38,1005.96,12.81,1006.35,12.34z"/>
	<path class="st18" d="M962.24,104.34c0.01-2.27,0.01-4.55,0.05-6.82c0.01-0.45-0.26-1.1,0.21-1.31c0.57-0.25,0.95,0.43,1.17,0.8
		c1.12,1.9,2.66,3.47,3.99,5.2c2.13,2.75,4.27,5.5,6.43,8.23c0.22,0.28,0.62,0.42,0.93,0.63c0.03,5.44,0.06,10.88,0.12,16.32
		c0.01,0.8-0.52,1.17-0.98,1.63c-0.56,0.57-1.16,1.11-1.73,1.67c-1.32-0.63-1.83-1.99-2.57-3.08c-1.41-2.08-3.07-3.95-4.61-5.91
		c-0.92-1.17-1.56-2.6-2.94-3.39c-0.2-0.12-0.18-0.42-0.17-0.66c-0.38-3.86-0.25-7.72-0.26-11.58
		C961.88,105.49,961.76,104.85,962.24,104.34z"/>
	<path class="st18" d="M942.34,80.69c0.01-2.32,0.01-4.65,0.03-6.97c0-0.3-0.16-0.75,0.25-0.87c0.44-0.13,0.48,0.3,0.62,0.6
		c0.6,1.3,1.21,2.47,2.93,2.75c0.75,0.12,0.71,1.29,0.5,2.05c-0.22,0.83-0.28,1.2,0.86,1.06c1.34-0.16,1.75,0.49,1.45,1.81
		c-0.07,0.33-0.15,0.7,0.14,0.93c0.37,0.29,0.42-0.2,0.62-0.34c0.53-0.35,0.92-0.18,1.11,0.37c0.12,0.36,0.11,0.78,0.53,0.94
		c1.46,0.56,1.43,1.63,1.05,2.87c-0.34,1.13,0.45,1.46,1.29,1.57c1.35,0.17,1.88,0.77,1.78,2.2c-0.1,1.34-0.27,2.74,0.15,4.08
		c0.16,0.08,0.27,0.2,0.35,0.37c0.27,0.93,0.14,1.87,0.15,2.81c0.04,0.95,0.03,1.9,0.01,2.85c0,2.59,0.04,5.18-0.09,7.76
		c-0.62,1.15-1.28,0.61-1.86-0.01c-1.22-1.32-2.21-2.83-3.22-4.3c-1.21-1.76-2.65-3.31-3.92-4.99c-1.56-2.06-3.38-3.93-4.68-6.19
		C942.36,88.25,942.35,84.47,942.34,80.69z"/>
	<path class="st19" d="M974.74,59.57c0.03,0.57,0.07,1.15,0.1,1.72c-0.03,0.76-0.06,1.52-0.09,2.28c-1.1,1.05-2.65,0.39-3.27-1.24
		c-0.53-1.4-1.16-2.8-2.63-3.53c-0.39-0.19-0.81-0.49-0.78-0.94c0.08-1.08-0.64-1.73-1.34-2.19c-1.31-0.87-1.48-2.67-2.93-3.37
		c0.37-1.45-1.37-1.71-1.62-2.9c-0.15-0.71-0.71-1.43-1.46-1.85c-0.34-0.19-0.62-0.48-0.74-0.84c-0.4-1.22-1.24-1.96-2.22-2.77
		c-0.87-0.72-1.16-2.16-1.82-3.23c-0.31-0.5-0.65-0.83-1.15-1.15c-1.19-0.75-2.4-1.57-2.35-3.24c0.01-0.25-0.01-0.6-0.25-0.59
		c-1.87,0.12-1.76-2.09-3.13-2.62c-0.5-0.19-0.55-0.97-0.57-1.64c-0.01-0.3-1.22,0.01-1.49-0.62c-1.14-2.66-3.47-4.31-5.28-6.4
		c-0.42-1.13-0.36-2.31-0.36-3.48c0-2.16-0.01-4.32,0-6.47c0-0.65-0.05-1.33,0.42-1.88c0.03-3.03,0.05-6.06,0.08-9.09
		c0.46,0.72,0.12,1.51,0.23,2.26c0.44,0.47,0.35,1.06,0.35,1.62c0.01,1.94,0.11,3.89-0.03,5.82c-0.12,1.56,0.53,2.67,1.42,3.83
		c2.48,3.27,5.03,6.49,7.48,9.78c2,2.68,3.76,5.57,6.32,7.82c0.98,0.86,1.39,2.14,2.13,3.17c1.76,2.45,3.83,4.66,5.57,7.13
		c1.34,1.89,2.56,3.85,4.16,5.53c1.89,1.98,3.17,4.46,5.16,6.35C974.72,57.75,974.53,58.67,974.74,59.57z"/>
	<path class="st20" d="M942.37,92.03c1.52,1.03,2.35,2.69,3.44,4.06c1.1,1.38,2.22,2.8,3.35,4.15c1.85,2.23,3.31,4.72,5.17,6.93
		c0.39,0.46,0.73,0.86,1.39,0.79c0.33,0.26,0.4,0.64,0.4,1.01c-0.04,2.48,0.25,4.98-0.24,7.45c0,2.55-0.01,5.1,0.01,7.65
		c0,0.66-0.05,1.24-0.81,1.45c-0.72,0.21-1.19-0.09-1.75-0.56c-1.96-1.64-3.25-3.9-5.27-5.46c-0.35-0.27-0.56-0.64-0.68-1.05
		c-0.28-0.91-0.78-1.59-1.73-1.91c-0.66-0.23-0.98-0.64-0.7-1.42c0.27-0.76,0.07-1.27-0.72-1.85c-0.92-0.68-1.67-1.74-1.72-3.05
		c-0.05-1.32,0.11-2.64-0.09-3.95C942.4,101.52,942.38,96.78,942.37,92.03z"/>
	<path class="st21" d="M1006.64,61.29c0.03-0.47,0.06-0.94,0.09-1.4c0.97,0.46,0.52,1.36,0.63,2.08c0.06,1.93,0.03,3.86,0.03,5.78
		c-0.04,1.25,0.02,2.5-0.02,3.74c-0.1,2.79-0.02,5.59-0.05,8.39c-0.01,0.66,0.14,1.2,0.8,1.52c1.91,0.92,2.8,2.75,3.79,4.45
		c0.81,1.4,1.42,2.9,2.96,3.71c0.25,0.13,0.44,0.36,0.57,0.62c1.11,2.31,2.91,4.14,4.34,6.23c0.5,0.73,0.95,1.54,1.93,1.8
		c0.28,0.07,0.42,0.38,0.52,0.65c0.63,1.69,1.9,2.95,3,4.28c0.99,1.2,1.8,2.53,2.83,3.7c-8.13,2.14-18.6-1.73-20.83-12.63
		c-0.26-1.26-0.32-2.53-0.33-3.81c-0.07-9.42-0.15-18.84-0.22-28.27C1006.68,61.86,1006.65,61.57,1006.64,61.29z"/>
	<path class="st19" d="M942.03,24.86c2,1.06,3.61,2.6,4.52,4.62c0.64,1.43,1.28,2,3.09,0.87c-1.21,1.88-0.95,2.92,0.93,3.23
		c0.1,0.02,0.24,0.21,0.24,0.32c-0.04,1.22,0.37,1.7,1.68,1.3c0.44-0.14,0.4,0.53,0.37,0.89c-0.09,1.18,1.05,3.03,2.2,3.23
		c0.72,0.12,0.92,0.41,1.07,1.03c0.12,0.49,0.52,0.89,0.76,1.33c0.7,1.3,2.1,2.25,2.61,3.36c0.78,1.69,2.35,2.58,3.12,4.15
		c0.24,0.49,0.18,1.56,1.3,1.28c0.05-0.01,0.21,0.15,0.21,0.16c-0.95,1.64,1.25,1.81,1.41,3.03c0.16,1.22,1.63,1.6,2.31,2.56
		c0.15,0.22,0.64,0.43,0.61,0.51c-0.58,1.65,0.7,1.84,1.71,2.26c0.3,0.12,0.27,0.46,0.39,0.7c0.63,1.18,1.29,2.34,1.98,3.47
		c0.57,0.92,1.35,1.01,2.22,0.4c0,2.75,0.01,5.5,0.01,8.25c-1.52-0.04-1.64-1.56-2.34-2.39c-1.72-2-3.11-4.29-4.73-6.38
		c-2.14-2.77-4.5-5.38-6.54-8.21c-1.98-2.75-4.28-5.23-6.25-7.98c-1.18-1.64-2.58-3.13-3.71-4.8c-1.59-2.38-3.69-4.37-5.15-6.86
		c-0.84-1.44-2.32-2.47-2.95-4.11c-0.16-0.41-0.68-0.21-1.04-0.25C941.43,28.85,941.44,26.86,942.03,24.86z"/>
	<path class="st22" d="M961.4,151.18c4.51-4.64,9.03-9.28,13.54-13.93c0.13,0.04,0.26,0.07,0.39,0.11c0,10.59,0,21.19,0,31.78
		c-0.55,0.19-0.9-0.14-1.23-0.49c-0.2-0.2-0.34-0.45-0.51-0.68c-2.1-2.96-4.43-5.74-6.52-8.7c-1.71-2.43-3.95-4.44-5.36-7.08
		C961.54,151.88,961.19,151.62,961.4,151.18z"/>
	<path class="st23" d="M961.4,151.18c1.56,2.16,3.14,4.29,4.87,6.33c0.98,1.16,1.96,2.44,2.82,3.77c1.64,2.55,3.73,4.8,5.4,7.35
		c0.16,0.25,0.55,0.34,0.84,0.51c0.06,3.32,0.17,6.65-0.02,9.97c-0.59,0.06-0.95-0.27-1.29-0.71c-2.6-3.34-5.24-6.65-7.78-10.04
		c-2.12-2.82-4.17-5.71-6.38-8.46c-1.11-1.37-2.13-2.85-3.48-4.04c-0.56-0.5-1.07-1.24-1.37-1.91c-1.02-2.23-3.24-3.61-4.03-6.03
		c-0.25-0.77-1.33-1.14-1.93-1.92c-1.01-1.32-1.72-2.85-3.08-3.99c-1.05-0.88-2.15-2.16-1.98-3.86c2.75,2.75,5.41,5.59,8.28,8.2
		c1.63,1.49,3.23,3.01,4.84,4.52C958.45,152.14,959.9,152.02,961.4,151.18z"/>
	<path class="st24" d="M1028.06,106.85c-0.84-0.5-1.44-1.16-1.98-2.03c-0.95-1.54-2.21-2.88-3.38-4.28
		c-0.34-0.41-0.63-0.78-0.71-1.34c-0.06-0.43-0.2-0.98-0.92-0.74c-0.14,0.05-0.44-0.04-0.49-0.15c-0.84-1.85-2.58-3.09-3.37-4.97
		c-0.14-0.33-0.24-0.61-0.6-0.71c-0.28-0.08-0.63-0.15-0.7-0.43c-0.69-2.82-4.15-3.83-4.5-6.86c-1.48-1.1-1.81-3.37-3.92-3.84
		c-0.75-0.17-0.51-0.82-0.52-1.29c-0.02-2.8,0-5.59,0-8.39c0.57-0.44,0.97-0.09,1.34,0.31c0.76,0.82,1.59,1.54,2.12,2.62
		c0.72,1.48,2,2.62,3,3.94c2.43,3.2,4.96,6.32,7.36,9.54c1.7,2.28,3.72,4.33,5.27,6.67c2.22,3.36,5.19,6.14,7.15,9.68
		C1031.69,105.79,1029.98,106.55,1028.06,106.85z"/>
	<path class="st25" d="M1006.7,27.43c0-2.28-0.01-4.56-0.01-6.84c1.23-0.08,1.89,0.89,2.36,1.66c2.31,3.78,5.39,6.96,7.97,10.52
		c2.75,3.79,5.5,7.6,8.45,11.23c3.61,4.45,6.88,9.15,10.65,13.47c1.08,1.23,1.85,2.74,3.1,3.85c0.12,0.54-0.07,1.11,0.13,1.65
		c0.01,2.18,0.01,4.37,0.02,6.55c-0.3,0.05-0.43-0.16-0.5-0.39c-0.58-2.02-1.87-3.6-3.42-4.88c-0.63-0.52-1.28-0.8-1.34-1.7
		c-0.02-0.32-0.32-0.46-0.63-0.46c-1.45,0-1.83-1.14-2.02-2.17c-0.25-1.41-1.45-2.32-1.72-3.69c-0.03-0.18-0.25-0.33-0.43-0.34
		c-1.39-0.06-1.68-1.17-2.13-2.16c-0.59-1.3-1.51-2.32-2.54-3.34c-1.68-1.67-3.27-3.47-4.62-5.46c-1.31-1.94-2.39-4.02-3.88-5.83
		c-0.15-0.18-0.31-0.38-0.52-0.48c-1.84-0.82-2.99-2.11-3.02-4.23c-0.01-0.51-0.42-0.65-0.85-0.81c-0.78-0.3-1.5-0.71-1.07-1.77
		c0.11-0.26,0-0.53-0.2-0.63c-1.05-0.53-1.71-1.5-2.59-2.17C1007.29,28.55,1006.91,28.11,1006.7,27.43z"/>
	<path class="st16" d="M931.26,54.31c3.01-0.05,6.03-0.02,9.04-0.01c0.61,0,1.24-0.03,1.73,0.45c0.01,2.28,0.02,4.55,0.02,6.83"/>
	<path class="st22" d="M942.41,106.27c0.34,0.36,0.29,0.82,0.22,1.21c-0.38,2,0.44,3.68,1.36,5.33c0.06,0.1,0.17,0.2,0.27,0.25
		c1.43,0.65,1.42,0.65,0.83,2.49c-0.17,0.53,0.3,0.61,0.68,0.66c0.84,0.11,1.52,0.54,1.64,1.34c0.23,1.47,1.65,1.91,2.31,2.95
		c1.07,1.67,2.79,2.7,3.93,4.25c0.41,0.56,0.76,0.63,1.27,0.51c0.58-0.13,0.82-0.52,0.82-1.14c-0.02-2.46,0.01-4.93,0.02-7.39
		c0.13-0.03,0.2,0.02,0.21,0.15c0,7.9,0,15.8,0,23.99c-1.92-1.88-3.7-3.61-5.47-5.35c-2.43-2.39-4.85-4.8-7.3-7.18
		c-0.47-0.46-0.75-0.9-0.75-1.59C942.46,119.92,942.43,113.09,942.41,106.27z"/>
	<path class="st26" d="M1039.41,85.2c0.05,2.37,0.16,4.74-0.02,7.11c-0.52,0.16-0.8-0.2-1.07-0.52c-2.35-2.72-4.43-5.65-6.6-8.52
		c-1.24-1.64-2.26-3.42-3.7-4.96c-1.23-1.31-2.39-2.79-3.45-4.29c-1.69-2.39-3.86-4.43-5.17-7.11c-0.51-1.04-1.74-1.48-2.32-2.48
		c-1.31-2.25-3.14-4.12-4.49-6.36c-0.84-1.4-2.18-2.48-3.25-3.75c-1-1.18-2.02-2.34-2.81-3.68c0.28-1.76-0.53-3.48-0.15-5.24
		c0.73-0.97,1.13-0.06,1.5,0.33c2.31,2.37,4.29,5.01,6.29,7.65c1.18,1.55,2.04,3.3,3.31,4.77c0.41,0.47,0.83,0.89,1.37,1.22
		c0.86,0.52,1.55,1.2,1.99,2.15c0.63,1.33,1.84,2.23,2.6,3.52c1.82,3.09,3.9,6.03,6.22,8.79c1.03,1.22,2,2.5,2.86,3.85
		c0.43,0.68,0.89,1.2,1.77,1.2c0.43,0,0.87,0.11,0.95,0.66c0.38,2.55,1.59,4.49,4.03,5.54C1039.48,85.18,1039.25,85.1,1039.41,85.2z
		"/>
	<path class="st27" d="M1006.97,67.84c0-1.99,0-3.99-0.01-5.98c0.52-0.41,0.87-0.12,1.19,0.29c3.17,4.06,6.41,8.06,9.46,12.22
		c2.07,2.82,4.26,5.56,6.45,8.29c1.65,2.07,3.09,4.3,4.73,6.39c2.41,3.09,4.95,6.08,7.21,9.29c0.38,0.54,1.09,0.77,1.41,1.38
		c-0.51,1.22-1.21,2.3-2.25,3.14c-1.18,0.41-1.82-0.46-2.29-1.2c-2.09-3.27-4.5-6.31-6.96-9.29c-2.73-3.31-5.13-6.87-7.87-10.17
		c-1.59-1.92-3.1-3.93-4.56-5.97C1011.41,73.35,1009.2,70.59,1006.97,67.84z"/>
	<path class="st28" d="M1006.71,51.04c0.65,0.06,1,0.53,1.3,1c1.09,1.73,2.66,3.06,3.88,4.67c1.57,2.1,3.29,4.11,4.59,6.41
		c0.39,0.69,0.88,1.42,1.51,1.85c1.27,0.86,1.9,2.15,2.73,3.35c1.87,2.7,3.83,5.33,6.14,7.68c0.55,0.55,0.68,1.61,1.29,1.99
		c1.53,0.95,1.97,2.62,2.97,3.91c1.73,2.21,3.31,4.53,5.04,6.74c1.01,1.29,2,2.59,3.25,3.68c-0.09,1.55-0.39,3.07-0.86,4.55
		c-0.54,0.14-0.81-0.27-1.01-0.61c-0.86-1.42-2.52-2.34-2.6-4.26c-0.02-0.48-0.56-0.6-0.93-0.79c-0.87-0.45-1.52-1.04-1.85-2.03
		c-0.53-1.61-2.16-2.33-3.09-3.65c-1.17-1.66-2.62-3.11-3.54-4.94c-0.73-1.46-2.04-2.47-2.92-3.81c-0.39-0.59-0.82-1.15-1.19-1.75
		c-0.56-0.9-1.01-1.83-2.1-2.39c-1.02-0.51-1.15-1.91-1.94-2.74c-1.14-1.2-1.9-2.72-3.21-3.78c-0.19-0.15-0.42-0.33-0.45-0.54
		c-0.35-2.69-3.34-3.72-3.9-6.26c-0.04-0.18-0.2-0.33-0.38-0.41c-1.49-0.62-2.16-1.91-2.7-3.31c-0.03-0.67-0.06-1.35-0.1-2.02
		C1006.53,52.74,1006.38,51.88,1006.71,51.04z"/>
	<path class="st28" d="M1006.72,55.61c0.42,0.25,0.64,0.63,0.86,1.08c0.34,0.71,0.78,1.43,1.6,1.7c0.74,0.25,0.85,0.82,1.19,1.43
		c0.55,1.01,0.99,2.4,2.27,2.81c0.7,0.22,0.89,0.52,0.87,1.18c-0.05,1.14,0.36,2.02,1.52,2.41c0.13,0.04,0.3,0.14,0.34,0.25
		c0.59,2.01,2.77,2.95,3.36,4.97c0.12,0.41,0.33,0.95,0.72,1.01c1.65,0.24,1.72,1.77,2.45,2.78c0.76,1.05,1.37,2.23,2.42,3.03
		c0.61,0.46,0.81,1.14,1.17,1.73c1.23,2,2.72,3.81,4.12,5.69c0.74,1,2.04,1.44,2.51,2.65c0.56,1.45,1.31,2.68,3.02,2.96
		c0.1,0.02,0.24,0.21,0.23,0.32c-0.17,2.5,2.07,3.54,3.17,5.28c-0.08,1.07-0.61,1.96-1.13,2.85c-1.67-0.37-2.21-1.95-3.12-3.06
		c-2.62-3.19-5.17-6.46-7.58-9.81c-2.91-4.05-6.14-7.86-9.08-11.89c-3.16-4.33-6.6-8.44-9.8-12.74c-0.24-0.33-0.54-0.33-0.87-0.34
		c-0.1-0.65,0.22-1.36-0.23-1.97C1006.73,58.46,1006.72,57.03,1006.72,55.61z"/>
	<path class="st25" d="M1006.7,27.43c0.46,0.48,0.63,1.34,1.58,1.16c0.08-0.02,0.25,0.05,0.25,0.09c0.1,1.57,1.97,1.43,2.47,2.58
		c0.11,0.25,0.99,0.54-0.07,0.95c-0.36,0.14,0.5,1.23,1.06,1.1c1.09-0.25,0.93,0.37,0.96,0.98c0.11,1.83,0.91,3.06,2.64,3.95
		c1.14,0.58,2.11,1.67,2.55,3.1c0.21,0.69,0.42,1.58,1.33,1.89c0.4,0.13,0.5,0.47,0.61,0.87c0.44,1.61,2.04,2.4,2.78,3.66
		c0.96,1.64,2.61,2.49,3.61,3.97c0.51,0.76,1.02,1.51,1.29,2.43c0.2,0.69,0.42,1.65,1.61,1.21c0.12-0.04,0.44,0.12,0.47,0.24
		c0.39,1.37,1.59,2.39,1.82,3.77c0.14,0.8,0.54,1.38,0.85,2.05c0.13,0.29,0.37,0.48,0.68,0.36c1.23-0.49,1.39,0.22,1.38,1.17
		c0,0.23,0.08,0.46,0.12,0.68c1.54-0.87,1.29,1.1,2.2,1.46c0.91,0.36,1.26,1.79,1.89,2.73c0.37,0.55,0.12,1.24,0.59,1.69
		c0,0.86,0,1.72,0,2.57c-1.67-0.55-2.35-2.11-3.32-3.33c-3.56-4.5-7.06-9.04-10.56-13.58c-3.22-4.17-6.45-8.34-9.62-12.54
		c-2.86-3.79-5.67-7.62-8.76-11.22c-0.34-0.4-0.45-0.8-0.44-1.29C1006.69,29.23,1006.69,28.33,1006.7,27.43z"/>
	<path class="st29" d="M1039.41,85.2c-1.48-0.08-2.62-0.54-3.02-2.2c-0.13-0.54-0.72-0.97-1.07-1.47c-0.22-0.3-0.63-0.74-0.55-0.93
		c0.72-1.64-0.44-1.35-1.33-1.39c-0.17-0.01-0.44-0.1-0.48-0.22c-0.59-1.55-2.07-2.48-2.74-3.99c-0.34-0.77-1.04-1.43-1.62-2.06
		c-1.76-1.88-3.06-4.07-4.52-6.16c-0.89-1.28-1.39-2.81-2.7-3.84c-0.97-0.76-1.03-2.4-2.25-2.93c-1.12-0.49-1.67-1.47-2.46-2.24
		c-0.1-0.1-0.26-0.19-0.29-0.31c-0.71-2.7-3.33-4.1-4.42-6.63c-0.67-1.54-2.21-2.75-3.5-3.96c-0.61-0.58-0.93-1.44-1.76-1.79
		c-0.65-1.42-0.65-2.85,0-4.27c1.46,0.78,2.28,2.21,3.2,3.46c2.83,3.81,5.67,7.61,8.6,11.35c4.34,5.56,8.77,11.06,12.95,16.73
		c2.17,2.95,4.64,5.68,6.65,8.75c0.3,0.47,0.66,0.94,1.32,0.97C1039.41,83.11,1039.41,84.15,1039.41,85.2z"/>
	<path class="st30" d="M962.32,118.21c1.09,0.35,1.69,1.15,2.33,2.08c1.31,1.92,2.87,3.66,4.27,5.52c1.21,1.6,2.34,3.26,3.5,4.89
		c-3.21,3.32-6.41,6.64-9.62,9.96c-0.11-0.04-0.23-0.08-0.34-0.12c-0.08-7.16-0.16-14.32-0.23-21.48
		C962.13,118.76,962.04,118.47,962.32,118.21z"/>
	<path class="st27" d="M1006.97,67.84c1.72,0.61,2.26,2.37,3.29,3.6c2.41,2.89,4.58,5.98,6.87,8.97c2.09,2.74,4.27,5.41,6.25,8.24
		c1.29,1.84,2.82,3.52,4.22,5.3c1.78,2.26,3.54,4.52,5.12,6.91c0.62,0.94,1.26,1.77,2.45,1.98c-0.51,0.74-1.16,1.32-1.96,1.72
		c-1.55-1.21-2.4-2.99-3.64-4.45c-2.75-3.26-5.16-6.78-7.87-10.08c-2.61-3.18-4.94-6.58-7.44-9.86c-1.22-1.6-2.55-3.12-3.77-4.72
		c-0.78-1.01-1.28-2.21-2.32-3.05c-0.39-0.31-0.67-0.62-1.18-0.59C1006.97,70.49,1006.97,69.17,1006.97,67.84z"/>
	<path class="st31" d="M942.9,167.73c0.01,1.56,0.03,3.12,0.02,4.68c-0.04,3.56,0.99,6.63,3.97,8.83c0.26,0.19,0.62,0.45,0.66,0.72
		c0.17,1.34,1.11,2.11,1.98,2.95c1.49,1.43,2.04,3.5,3.48,4.98c0.97,1,2.06,1.94,2.43,3.38c-6.79-1.49-11.75-7.01-12.5-13.93
		c-0.42-3.86-0.19-7.74-0.18-11.61C942.8,167.73,942.85,167.73,942.9,167.73z"/>
	<path class="st32" d="M962.32,118.21c-0.03,0.28-0.06,0.57-0.09,0.85c-0.52-1.01-0.11-2.09-0.25-3.12
		c-0.68-0.96-0.36-2.06-0.41-3.1c-0.03-1.03-0.04-2.06,0-3.09c-0.03-0.75-0.03-1.5,0-2.25c0.03-0.84-0.3-1.2-1.16-1.14
		c-0.98,0.07-1.97,0.04-2.95,0.02c-0.51-0.01-1.04,0.01-1.47-0.35c-0.18-0.31-0.11-0.65-0.11-0.97c-0.04-2.88-0.04-2.91,2.92-2.9
		c1.07,0,2.18-0.14,3.2,0.4c0.08,0.59,0.16,1.19,0.24,1.78C962.27,108.97,962.29,113.59,962.32,118.21z"/>
	<path class="st33" d="M962,102.56c-1.67,0.28-3.35-0.09-5.04,0.09c-0.82,0.09-0.96,0.24-0.95,0.91c0.02,0.81,0.01,1.61,0.02,2.42
		c0.73,1.15,0.32,2.43,0.4,3.66c0.03,1.06,0.03,2.11,0,3.17c-0.04,1.05,0.26,2.15-0.36,3.14c-0.03,0.31-0.07,0.62-0.1,0.93
		c-0.07-0.05-0.14-0.1-0.21-0.15c-0.02-2.92-0.03-5.84-0.05-8.76c0.02-2.75,0.05-5.5,0.07-8.25c2.07-0.72,4.14-0.71,6.22,0
		C962,100.66,962,101.61,962,102.56z"/>
	<path class="st34" d="M956.07,115.94c-0.01-1.04-0.01-2.09-0.02-3.13c1.97-0.73,3.94-0.72,5.92,0c0,1.04,0.01,2.09,0.01,3.13
		C960.02,116.22,958.04,116.06,956.07,115.94z"/>
	<path class="st25" d="M1039.34,62.98c-0.42-0.52-0.15-1.13-0.23-1.69c-0.73-1.01-0.37-2.18-0.43-3.28
		c-0.04-0.7-0.04-1.41,0.01-2.11c0-1.64-0.06-3.27,0.01-4.91c-0.05-1.96-0.05-3.92-0.02-5.88c0.01-0.64-0.07-1.32,0.48-1.83
		c0.08,0.03,0.16,0.07,0.23,0.12c0.01,3.78,0.03,7.56,0.04,11.34C1039.39,57.49,1039.37,60.23,1039.34,62.98z"/>
	<path class="st14" d="M942.9,167.73c-0.05,0-0.1,0-0.15,0c-0.02-3.32-0.03-6.63-0.05-9.95c0.48,1.08,0.18,2.22,0.21,3.32
		C942.96,163.32,942.91,165.53,942.9,167.73z"/>
	<path class="st8" d="M941.77,12.62c0.22,4.08-0.1,8.16,0.26,12.24c-0.13,1.99-0.09,3.99,0.04,5.98c0,5.18,0,10.35-0.01,15.53
		c0,0.71-0.03,1.41-0.04,2.12c-0.2,0.04-0.34-0.03-0.43-0.21c-0.48-2.54-0.14-5.1-0.2-7.65c-0.02-3.94,0.01-7.87-0.02-11.81
		c-0.01-1.63-0.18-1.84-1.79-1.81"/>
	<path class="st8" d="M913.13,27.09c-1.6,0.03-1.65,0.09-1.66,1.73c-0.02,4.03,0.01,8.06-0.01,12.1c0.05,2.6,0.06,5.2,0,7.8
		c-0.01,0.64,0.11,1.31-0.45,1.82c-0.35-2.16-0.15-4.34-0.16-6.51c-0.07-10.28-0.08-20.56-0.1-30.84c0-0.19,0.03-0.38,0.05-0.57"/>
	<path class="st16" d="M940.53,48.3c0.43,0,0.85,0.03,1.26,0.18c0.08,0,0.15,0,0.23,0c0.03,1.71,0.07,3.41,0.1,5.12
		c-0.03,0.38-0.06,0.76-0.09,1.14c-3.59,0-7.18,0-10.77,0"/>
	<path class="st35" d="M1039.15,43.29c-0.01,2.58-0.03,5.17-0.04,7.75c-1.39-0.07-2.12-1.2-2.84-2.08
		c-3.16-3.88-6.05-7.97-9.22-11.85c-2.06-2.52-3.72-5.36-5.89-7.79c-2.87-3.21-5.03-6.97-7.92-10.13c-2.4-2.62-4.05-5.79-6.57-8.29
		c-0.13-1.03,0.27-2.11-0.24-3.11c-0.01-2.47-0.01-4.94-0.02-7.41c2,2.29,4.17,4.46,5.75,7.08c0.77,1.27,1.81,2.29,2.68,3.45
		c2.63,3.49,5.42,6.86,8,10.38c1.95,2.66,4.05,5.19,6.02,7.82c2.51,3.34,5.04,6.66,7.69,9.89c0.79,0.96,1.19,2.27,2.58,2.64
		C1039.15,42.2,1039.15,42.74,1039.15,43.29z"/>
	<path class="st36" d="M978.35,20.19c-0.47,0-0.95-0.01-1.42,0.01c-1.49,0.05-1.63,0.18-1.67,1.64c-0.04,1.47,0.04,2.94-0.04,4.4
		c0.05,2.37,0.06,4.74,0,7.1c-0.08,2.15,0.31,4.32-0.25,6.45c-0.12,0.19-0.26,0.21-0.42,0.03c0.13-1.67,0.11-3.34,0.01-5.01
		c-0.03-6.36-0.05-12.71-0.08-19.07c0.03-1.14,0.05-2.28,0.08-3.42"/>
	<path class="st36" d="M1006.35,12.34c0.01,2.47,0.01,4.93,0.02,7.4c-0.68,0.59-1.52,0.45-2.31,0.45"/>
	<path class="st37" d="M974.51,56.74c-0.72,0.07-1.11-0.34-1.46-0.91c-1.69-2.79-4.12-5-5.95-7.64c-1.22-1.76-2.79-3.29-3.72-5.23
		c-0.45-0.94-1.3-1.47-1.92-2.23c-1.02-1.24-2.06-2.47-2.73-3.93c-0.74-1.61-2.29-2.48-3.29-3.83c-1.49-2-2.98-4-4.48-5.99
		c-1.41-1.87-2.71-3.83-4.27-5.55c-1.3-1.44-1.99-3.33-3.49-4.58c-1.25-1.04-1.13-2.4-1.11-3.8c0.03-2.42,0.01-4.83,0.01-7.25
		c1.21,0.2,1.56,1.33,2.14,2.13c1.49,2.03,3.43,3.73,4.63,5.96c1.27,2.37,3.78,3.79,4.76,6.37c0.11,0.29,0.43,0.49,0.66,0.73
		c2.14,2.3,3.84,4.95,5.79,7.39c1.08,1.36,2.01,2.84,3.26,4.13c1.45,1.49,2.43,3.44,3.76,5.1c1.75,2.2,3.26,4.6,5.27,6.58
		c0.75,0.74,0.83,2.09,2.14,2.31c0.18,0.16,0.34,0.36,0.31,0.6c-0.37,3.17,0.03,6.35-0.23,9.52
		C974.57,56.65,974.53,56.69,974.51,56.74z"/>
	<path class="st19" d="M974.51,56.74c-0.01-3.42-0.01-6.83-0.02-10.25c0.02-2.22,0.04-4.44,0.06-6.66c0.08,0.05,0.15,0.11,0.23,0.16
		c0.32,0.25,0.37,0.61,0.41,0.98c0.11,1.83,0.04,3.66,0.04,5.49c0,0.52-0.05,1.04-0.42,1.45c-0.02,3.89-0.05,7.77-0.07,11.66
		C974.28,58.66,974.62,57.68,974.51,56.74z"/>
	<path class="st38" d="M955.76,94.02c-0.04-0.1-0.08-0.19-0.13-0.29c0.04-1.04,0.07-2.09,0.11-3.13c0.17-0.3,0.4-0.57,0.75-0.59
		c1.82-0.11,3.64-0.33,5.45,0.02c0,1.23,0.01,2.47,0.01,3.7c-0.24,0.24-0.53,0.42-0.86,0.41c-1.49-0.01-2.97,0.05-4.45,0.22
		C956.32,94.41,956.01,94.26,955.76,94.02z"/>
	<path class="st39" d="M961.94,90.04c-1.4,0.5-2.86,0.21-4.29,0.28c-0.65,0.03-1.31-0.09-1.9,0.28c-0.26-3.29-0.26-3.29,3.03-3.35
		c0.19,0,0.38-0.01,0.56-0.02C962.1,87.19,962.1,87.19,961.94,90.04z"/>
	<path class="st40" d="M955.76,94.02c2.06-0.09,4.13-0.19,6.19-0.28c0.01,1.04,0.01,2.09,0.02,3.13c-2.07,0.71-4.14,0.72-6.21,0
		C955.76,95.92,955.76,94.97,955.76,94.02z"/>
	<path class="st41" d="M955.77,96.87c2.07,0,4.14,0,6.21,0c0.01,0.95,0.01,1.9,0.02,2.85c-2.07,0-4.14,0-6.22,0
		C955.77,98.76,955.77,97.82,955.77,96.87z"/>
	<path class="st12" d="M949.23,56.21c0.63,0.11,0.5,0.54,0.52,0.88c0.01,0.26,0.04,0.65-0.32,0.65c-0.39,0-0.69-0.31-0.71-0.71
		C948.7,56.64,948.93,56.35,949.23,56.21z"/>
	<path class="st12" d="M971.79,86.68c-0.3,0.07-0.36-0.06-0.35-0.21c0-0.2,0.1-0.36,0.33-0.37c0.2-0.01,0.41,0.07,0.35,0.29
		C972.07,86.53,971.85,86.63,971.79,86.68z"/>
	<path class="st42" d="M1002.63,40.12c1.28,0.01,2.64-0.27,3.85,0.46c0,2.45,0.19,4.89-0.1,7.34"/>
	<path class="st42" d="M974.81,47.91c-0.13-2.37-0.14-4.74-0.03-7.12c0.54-0.67,1.3-0.72,2.07-0.7"/>
	<path class="st7" d="M1005.21,25.91c0.44,0.01,0.85,0.08,1.19,0.38c0.1,4.84,0.2,9.68,0.3,14.51c0,1.42,0,2.85,0,4.27
		c0.01,1.99,0.01,3.98,0.02,5.98c-0.03,0.85-0.06,1.7-0.08,2.55c-0.54-1.87-0.09-3.79-0.24-5.68c0-2.47-0.01-4.93-0.01-7.4
		c-0.78-1.22-0.4-2.58-0.43-3.88c-0.06-2.78-0.02-2.78-2.82-2.78"/>
	<path class="st7" d="M977.14,33.85c-0.79,0-1.63,0.15-2.31-0.45c-0.01-2.37-0.01-4.74-0.02-7.12c0.5-0.46,1.13-0.45,1.74-0.45"/>
	<path class="st8" d="M993.57,19.74c4.27,0,8.54,0,12.8,0c0.01,2.18,0.02,4.36,0.02,6.55"/>
	<path class="st8" d="M974.82,26.28c-0.01-1.71,0.05-3.42-0.04-5.12c-0.06-1.12,0.29-1.46,1.43-1.45"/>
	<path class="st43" d="M1039.11,55.88c0,1.8,0.01,3.61,0.01,5.41c-0.94-0.16-1.43-0.92-1.9-1.59c-2.75-3.88-5.84-7.49-8.76-11.23
		c-2.74-3.51-5.41-7.09-8.1-10.64c-2.67-3.52-5.22-7.12-8.13-10.46c-1.19-1.37-2.15-2.97-3.12-4.52c-0.62-0.99-1.59-1.53-2.42-2.25
		c0-1.9,0-3.79,0-5.69c0.59-0.38,0.87,0.1,1.16,0.44c1.24,1.5,2.4,3.05,3.44,4.68c0.54,0.84,1.1,1.65,1.75,2.4
		c2.61,3.03,4.89,6.32,7.33,9.48c3.11,4.04,6.24,8.06,9.42,12.05c1.81,2.27,3.21,4.87,5.2,6.95
		C1036.49,52.49,1037.51,54.42,1039.11,55.88z"/>
	<path class="st43" d="M1039.11,55.88c-1.15-0.41-1.9-1.21-2.25-2.37c-0.1-0.34-0.28-0.59-0.53-0.82c-2.22-2.02-4.01-4.36-5.42-7
		c-0.5-0.94-1.39-1.59-2.07-2.37c-2.23-2.57-4.14-5.38-6.28-8.01c-1.78-2.19-3.45-4.54-5.14-6.82c-1.4-1.88-2.81-3.83-4.4-5.61
		c-2.03-2.26-3.67-4.88-5.46-7.36c-0.24-0.33-0.45-0.61-0.88-0.61c0-1.33,0-2.66-0.01-3.99c1.45,0.45,2.47,1.8,2.94,2.84
		c1.08,2.39,3.1,3.9,4.54,5.91c1.46,2.04,3.08,3.97,4.44,6.07c0.89,1.37,2.09,2.42,3.1,3.67c2,2.48,3.63,5.25,5.76,7.61
		c2.73,3.01,4.68,6.59,7.5,9.55c1.4,1.47,2.35,3.37,4.16,4.48C1039.11,52.65,1039.11,54.27,1039.11,55.88z"/>
	<path class="st22" d="M948.63,117.45c0.26,0.04,0.43,0.19,0.43,0.45c0.01,0.25-0.2,0.29-0.39,0.27c-0.25-0.02-0.46-0.14-0.44-0.42
		C948.25,117.54,948.43,117.45,948.63,117.45z"/>
	<path class="st16" d="M926.57,54.49c1.56,0.02,3.16-0.36,4.69,0.25"/>
	<path class="st20" d="M942.99,114.31c-0.26-0.01-0.32-0.11-0.3-0.27c0.03-0.21,0.15-0.34,0.36-0.34c0.2,0,0.39,0.11,0.3,0.33
		C943.28,114.17,943.07,114.25,942.99,114.31z"/>
	<path class="st44" d="M956.05,109.68c-0.01-1.23-0.01-2.47-0.02-3.7c1.75-0.03,3.51,0,5.25-0.13c0.69-0.05,0.7,0.25,0.7,0.7
		c0,1.04-0.02,2.08-0.03,3.13C959.99,110.38,958.02,110.38,956.05,109.68z"/>
	<path class="st45" d="M956.05,109.68c1.97,0,3.94,0,5.91,0c0,1.04,0.01,2.08,0.01,3.13c-1.97,0-3.94,0-5.92,0
		C956.05,111.77,956.05,110.72,956.05,109.68z"/>
	<path class="st46" d="M940.28,26.55c1.08-0.03,1.54,0.3,1.52,1.45c-0.05,4.17-0.03,8.34-0.04,12.51c-0.93,0.66-2.02,0.43-3.02,0.44
		"/>
	<path class="st42" d="M931.63,40.63c1.66,0.15,3.36-0.13,5.06-0.04c1.69,0.09,3.39-0.04,5.08-0.07c0.01,2.66,0.01,5.31,0.02,7.97
		c-0.47,0.49-1.07,0.27-1.61,0.27"/>
	<path class="st46" d="M985.13,40.64c-2.53,0.07-5.13,0.13-7.69-0.12c-0.89-0.09-1.79-0.02-2.65,0.28c0-0.27-0.01-0.54-0.01-0.81
		c0.02-2.2,0.04-4.39,0.06-6.59"/>
	<path class="st46" d="M1004.84,33.37c1.27-0.01,1.65,0.36,1.57,1.6c-0.1,1.84-0.03,3.7-0.04,5.54c-3.71,0-7.44-0.19-11.13,0.05"/>
</g>
</svg>
