<svg id="Layer_1" data-name="Layer 1" xmlns="http://www.w3.org/2000/svg" xmlns:xlink="http://www.w3.org/1999/xlink" viewBox="0 0 1921.14 895"><defs><style>.cls-1{fill:url(#linear-gradient);}.cls-2{fill:url(#linear-gradient-2);}.cls-3{fill:url(#linear-gradient-3);}.cls-4{fill:url(#linear-gradient-4);}.cls-5{fill:url(#linear-gradient-5);}.cls-6{fill:url(#linear-gradient-6);}</style><linearGradient id="linear-gradient" x1="1645.08" y1="446.75" x2="683.6" y2="450.27" gradientUnits="userSpaceOnUse"><stop offset="0" stop-color="#fff"/><stop offset="0.14" stop-color="#fdfdfd" stop-opacity="0.99"/><stop offset="0.28" stop-color="#f7f7f7" stop-opacity="0.95"/><stop offset="0.41" stop-color="#eee" stop-opacity="0.88"/><stop offset="0.54" stop-color="#e1e1e1" stop-opacity="0.78"/><stop offset="0.66" stop-color="#d0d0d0" stop-opacity="0.66"/><stop offset="0.79" stop-color="#bbb" stop-opacity="0.51"/><stop offset="0.91" stop-color="#a2a2a2" stop-opacity="0.34"/><stop offset="1" stop-color="#8f8f8f" stop-opacity="0.2"/></linearGradient><linearGradient id="linear-gradient-2" x1="2005.88" y1="-253.98" x2="1390.67" y2="-251.72" gradientTransform="translate(-914.48 558.48)" gradientUnits="userSpaceOnUse"><stop offset="0" stop-color="#fff" stop-opacity="0"/><stop offset="0.91" stop-color="#424242" stop-opacity="0.16"/><stop offset="1" stop-color="#171717" stop-opacity="0.2"/></linearGradient><linearGradient id="linear-gradient-3" x1="844.8" y1="739.43" x2="1118.94" y2="739.43" gradientUnits="userSpaceOnUse"><stop offset="0"/><stop offset="0.05" stop-color="#0b1007"/><stop offset="0.21" stop-color="#2d3d1c"/><stop offset="0.38" stop-color="#49632d"/><stop offset="0.54" stop-color="#5e803b"/><stop offset="0.7" stop-color="#6e9544"/><stop offset="0.85" stop-color="#77a24a"/><stop offset="1" stop-color="#7aa64c"/></linearGradient><linearGradient id="linear-gradient-4" x1="-115.2" y1="493.1" x2="158.94" y2="493.1" gradientUnits="userSpaceOnUse"><stop offset="0"/><stop offset="0.09" stop-color="#282002"/><stop offset="0.22" stop-color="#5e4c04"/><stop offset="0.36" stop-color="#8c7106"/><stop offset="0.49" stop-color="#b29007"/><stop offset="0.62" stop-color="#cfa708"/><stop offset="0.75" stop-color="#e4b809"/><stop offset="0.88" stop-color="#f1c30a"/><stop offset="1" stop-color="#f5c60a"/></linearGradient><linearGradient id="linear-gradient-5" x1="93.91" y1="156.44" x2="501.05" y2="156.44" gradientUnits="userSpaceOnUse"><stop offset="0"/><stop offset="0.12" stop-color="#17292b"/><stop offset="0.27" stop-color="#305459"/><stop offset="0.42" stop-color="#44777f"/><stop offset="0.57" stop-color="#54939c"/><stop offset="0.72" stop-color="#5fa6b1"/><stop offset="0.86" stop-color="#66b2be"/><stop offset="1" stop-color="#68b6c2"/></linearGradient><linearGradient id="linear-gradient-6" x1="1354.91" y1="460.53" x2="1574.05" y2="460.53" gradientTransform="translate(3368.14 1304.74) rotate(180)" xlink:href="#linear-gradient-3"/></defs><rect class="cls-1" x="960" width="961" height="895"/><rect class="cls-2" x="655.52" y="-655.52" width="609.96" height="1921" transform="translate(1265.48 -655.52) rotate(90)"/><path class="cls-3" d="M960,714.09h253.91c11.18,0,20.23,10.62,20.23,23.73v2.81c0,13.33-9.21,24.13-20.57,24.13H960Z" transform="translate(0 0)"/><path class="cls-4" d="M0,467.76H253.91c11.18,0,20.23,10.62,20.23,23.73v2.81c0,13.33-9.21,24.13-20.57,24.13H0Z" transform="translate(0 0)"/><path class="cls-5" d="M295.51,131.11H642.1c16.59,0,30,10.62,30,23.73v2.81c0,13.33-13.68,24.13-30.55,24.13H292.71c-15.3,0-27.71-9.8-27.71-21.88v-4.7C265,141.9,278.66,131.11,295.51,131.11Z" transform="translate(0 0)"/><path class="cls-6" d="M1921.14,864.47h-203c-8.93,0-16.17-8.49-16.17-19v-2.25c0-10.65,7.36-19.29,16.44-19.29h202.7Z" transform="translate(0 0)"/></svg>