<svg id="Layer_1" data-name="Layer 1" xmlns="http://www.w3.org/2000/svg" xmlns:xlink="http://www.w3.org/1999/xlink" viewBox="0 0 1921.14 763"><defs><style>.cls-1{fill:url(#linear-gradient);}.cls-2{fill:url(#linear-gradient-2);}.cls-3{fill:url(#linear-gradient-3);}.cls-4{fill:url(#linear-gradient-4);}.cls-5{fill:url(#linear-gradient-5);}.cls-6{fill:url(#linear-gradient-6);}</style><linearGradient id="linear-gradient" x1="1644.97" y1="380.75" x2="683.98" y2="384.27" gradientUnits="userSpaceOnUse"><stop offset="0" stop-color="#fff"/><stop offset="0.2" stop-color="#fbfbfb"/><stop offset="0.39" stop-color="#f0f0f0"/><stop offset="0.57" stop-color="#ddd"/><stop offset="0.75" stop-color="#c2c2c2"/><stop offset="0.93" stop-color="#a0a0a0"/><stop offset="1" stop-color="#8f8f8f"/></linearGradient><linearGradient id="linear-gradient-2" x1="1941.81" y1="-253.91" x2="1416.31" y2="-251.98" gradientTransform="translate(-869.5 513.5)" gradientUnits="userSpaceOnUse"><stop offset="0" stop-color="#fff" stop-opacity="0"/><stop offset="0.42" stop-color="#d9d9d9" stop-opacity="0.16"/><stop offset="0.82" stop-color="#666" stop-opacity="0.66"/><stop offset="1" stop-color="#171717"/></linearGradient><linearGradient id="linear-gradient-3" x1="844.8" y1="630.37" x2="1118.94" y2="630.37" gradientUnits="userSpaceOnUse"><stop offset="0"/><stop offset="0.05" stop-color="#0b1007"/><stop offset="0.21" stop-color="#2d3d1c"/><stop offset="0.38" stop-color="#49632d"/><stop offset="0.54" stop-color="#5e803b"/><stop offset="0.7" stop-color="#6e9544"/><stop offset="0.85" stop-color="#77a24a"/><stop offset="1" stop-color="#7aa64c"/></linearGradient><linearGradient id="linear-gradient-4" x1="-115.2" y1="420.37" x2="158.94" y2="420.37" gradientUnits="userSpaceOnUse"><stop offset="0"/><stop offset="0.09" stop-color="#282002"/><stop offset="0.22" stop-color="#5e4c04"/><stop offset="0.36" stop-color="#8c7106"/><stop offset="0.49" stop-color="#b29007"/><stop offset="0.62" stop-color="#cfa708"/><stop offset="0.75" stop-color="#e4b809"/><stop offset="0.88" stop-color="#f1c30a"/><stop offset="1" stop-color="#f5c60a"/></linearGradient><linearGradient id="linear-gradient-5" x1="93.91" y1="133.37" x2="501.05" y2="133.37" gradientUnits="userSpaceOnUse"><stop offset="0"/><stop offset="0.12" stop-color="#17292b"/><stop offset="0.27" stop-color="#305459"/><stop offset="0.42" stop-color="#44777f"/><stop offset="0.57" stop-color="#54939c"/><stop offset="0.72" stop-color="#5fa6b1"/><stop offset="0.86" stop-color="#66b2be"/><stop offset="1" stop-color="#68b6c2"/></linearGradient><linearGradient id="linear-gradient-6" x1="1354.91" y1="585.04" x2="1574.05" y2="585.04" gradientTransform="translate(3368.14 1304.74) rotate(180)" xlink:href="#linear-gradient-3"/></defs><rect class="cls-1" x="960" width="961" height="763"/><rect class="cls-2" x="700.5" y="-700.5" width="520" height="1921" transform="translate(1220.5 -700.5) rotate(90)"/><path class="cls-3" d="M960,608.77h253.91A20.23,20.23,0,0,1,1234.14,629v2.4A20.57,20.57,0,0,1,1213.57,652H960Z" transform="translate(0 0)"/><path class="cls-4" d="M0,398.77H253.91A20.23,20.23,0,0,1,274.14,419v2.4A20.57,20.57,0,0,1,253.57,442H0Z" transform="translate(0 0)"/><path class="cls-5" d="M295.51,111.77H642.1c16.59,0,30,9.06,30,20.23v2.4c0,11.36-13.68,20.57-30.55,20.57H292.71c-15.3,0-27.71-8.35-27.71-18.66v-4C265,121,278.66,111.77,295.51,111.77Z" transform="translate(0 0)"/><path class="cls-6" d="M1921.14,737h-203A16.17,16.17,0,0,1,1702,720.8v-1.92a16.44,16.44,0,0,1,16.44-16.44h202.7Z" transform="translate(0 0)"/></svg>